Coordinates
version=1
nRows=9
nColumns=63
inDegrees=yes

Units are S.I. units (second, meters, Newtons, ...)
If the header above contains a line with 'inDegrees', this indicates whether rotational values are in degrees (yes) or radians (no).

endheader
time	pelvis_tilt	pelvis_list	pelvis_rotation	pelvis_tx	pelvis_ty	pelvis_tz	hip_flexion_r	hip_adduction_r	hip_rotation_r	knee_angle_r	knee_angle_r_beta	ankle_angle_r	subtalar_angle_r	mtp_angle_r	hip_flexion_l	hip_adduction_l	hip_rotation_l	knee_angle_l	knee_angle_l_beta	ankle_angle_l	subtalar_angle_l	mtp_angle_l	L5_S1_Flex_Ext	L5_S1_Lat_Bending	L5_S1_axial_rotation	L4_L5_Flex_Ext	L4_L5_Lat_Bending	L4_L5_axial_rotation	L3_L4_Flex_Ext	L3_L4_Lat_Bending	L3_L4_axial_rotation	L2_L3_Flex_Ext	L2_L3_Lat_Bending	L2_L3_axial_rotation	L1_L2_Flex_Ext	L1_L2_Lat_Bending	L1_L2_axial_rotation	L1_T12_Flex_Ext	L1_T12_Lat_Bending	L1_T12_axial_rotation	Abs_r3	Abs_r2	Abs_r1	Abs_t1	Abs_t2	neck_flexion	neck_bending	neck_rotation	arm_flex_r	arm_add_r	arm_rot_r	elbow_flex_r	pro_sup_r	wrist_flex_r	wrist_dev_r	arm_flex_l	arm_add_l	arm_rot_l	elbow_flex_l	pro_sup_l	wrist_flex_l	wrist_dev_l
0.000000	3.417344	-2.024988	104.312001	0.067739	0.912078	0.536402	2.101006	6.796682	-8.240455	11.723491	0.204614	34.063847	0.695964	0.000000	2.470655	-5.339582	-8.336469	11.550258	0.201590	40.725098	13.945533	0.000000	0.317265	0.629171	-1.499607	0.589194	0.836797	-1.593333	0.521235	1.529765	-1.593333	0.362603	1.529765	-1.312156	0.294613	1.283005	-1.218431	0.181286	0.974585	-1.124705	2.266196	7.117303	-8.340366	0.000000	0.000000	24.893049	0.918411	7.242973	26.819153	-14.985514	78.924430	56.420645	24.100864	0.205451	9.136720	13.138786	-11.281273	44.974044	55.973961	56.923162	-3.425283	18.633940
0.017544	3.175433	-2.071210	104.785034	0.066999	0.911963	0.535856	2.060198	6.569636	-7.590919	12.089559	0.211003	33.699677	-0.212704	0.000000	2.679177	-5.214462	-9.147753	12.051767	0.210343	41.010417	14.155559	0.000000	0.327314	0.593653	-1.521142	0.607855	0.789559	-1.616213	0.537744	1.443408	-1.616213	0.374087	1.443408	-1.330999	0.303944	1.210577	-1.235928	0.187027	0.919569	-1.140856	2.337971	6.715523	-8.460135	0.000000	0.000000	24.837032	0.800585	7.012091	26.401370	-14.993103	78.768334	56.278565	23.071277	-0.610420	10.003234	13.083074	-11.110384	44.597870	55.801233	58.249815	-3.145148	18.085039
0.035088	2.923469	-2.095297	105.189893	0.066416	0.911907	0.535361	2.010440	6.329017	-7.111822	12.427648	0.216903	33.465223	-0.944083	0.000000	2.822771	-5.056818	-9.743730	12.419420	0.216760	41.284789	14.400109	0.000000	0.334675	0.557868	-1.554648	0.621525	0.741965	-1.651814	0.549838	1.356401	-1.651814	0.382500	1.356401	-1.360317	0.310779	1.137605	-1.263152	0.191233	0.864138	-1.165986	2.390552	6.310719	-8.646488	0.000000	0.000000	24.747395	0.763244	6.857985	26.089859	-14.942660	78.729901	56.152578	22.195360	-1.252234	10.618690	12.972462	-11.019004	44.177124	55.732781	59.294982	-2.896490	17.851754
0.052632	2.665543	-2.099696	105.529706	0.065980	0.911902	0.534912	1.953581	6.079148	-6.785975	12.739261	0.222342	33.346752	-1.510685	0.000000	2.907540	-4.872862	-10.148200	12.666645	0.221075	41.545667	14.670236	0.000000	0.339638	0.522253	-1.597862	0.630741	0.694597	-1.697728	0.557991	1.269806	-1.697728	0.388172	1.269806	-1.398129	0.315388	1.064979	-1.298263	0.194069	0.808970	-1.198397	2.425998	5.907833	-8.886829	0.000000	0.000000	24.629368	0.797544	6.773698	25.873492	-14.842819	78.793883	56.042794	21.461954	-1.735904	11.007449	12.814657	-10.998020	43.720648	55.756710	60.086291	-2.678627	17.897708
0.070175	2.405749	-2.086856	105.807600	0.065677	0.911939	0.534504	1.891470	5.824352	-6.596189	13.025901	0.227345	33.330527	-1.925025	0.000000	2.939586	-4.668808	-10.384958	12.806873	0.223522	41.790505	14.956993	0.000000	0.342489	0.487244	-1.648518	0.636037	0.648035	-1.751551	0.562676	1.184685	-1.751551	0.391431	1.184685	-1.442454	0.318036	0.993588	-1.339421	0.195698	0.754741	-1.236389	2.446367	5.511802	-9.168565	0.000000	0.000000	24.488183	0.894642	6.752272	25.741141	-14.702215	78.945031	55.949326	20.859899	-2.077346	11.193871	12.617371	-11.038319	43.237284	55.861127	60.651368	-2.490875	18.186523
0.087719	2.148179	-2.059225	106.026704	0.065497	0.912012	0.534133	1.825956	5.568953	-6.525277	13.289070	0.231938	33.402814	-2.199615	0.000000	2.925014	-4.450868	-10.477801	12.853533	0.224336	42.016756	15.251432	0.000000	0.343518	0.453278	-1.704353	0.637948	0.602859	-1.810875	0.564367	1.102099	-1.810875	0.392607	1.102099	-1.491309	0.318991	0.924324	-1.384786	0.196286	0.702127	-1.278264	2.453718	5.127567	-9.479098	0.000000	0.000000	24.329071	1.045693	6.786747	25.681677	-14.529484	79.168099	55.872283	20.378034	-2.292475	11.202320	12.388313	-11.130787	42.735874	56.034136	61.017842	-2.332548	18.681821
0.105263	1.896925	-2.019252	106.190145	0.065425	0.912112	0.533794	1.758887	5.317273	-6.556051	13.530271	0.236148	33.549875	-2.346968	0.000000	2.869925	-4.225254	-10.450527	12.820054	0.223752	42.221873	15.544605	0.000000	0.343013	0.420791	-1.763100	0.637010	0.559652	-1.873294	0.563537	1.023110	-1.873294	0.392030	1.023110	-1.542713	0.318522	0.858076	-1.432519	0.195998	0.651805	-1.322325	2.450110	4.760068	-9.805834	0.000000	0.000000	24.157264	1.241855	6.870166	25.683971	-14.333259	79.447839	55.811776	20.005201	-2.397207	11.057155	12.135191	-11.266311	42.225260	56.263841	61.213339	-2.202963	19.347226
0.122807	1.656081	-1.969384	106.301052	0.065452	0.912233	0.533483	1.692114	5.073636	-6.671322	13.751006	0.240000	33.757977	-2.379598	0.000000	2.780424	-3.998180	-10.326933	12.719868	0.222004	42.403310	15.827564	0.000000	0.341262	0.390220	-1.822496	0.633758	0.518992	-1.936402	0.560659	0.948780	-1.936402	0.390028	0.948780	-1.594684	0.316896	0.795736	-1.480778	0.194997	0.604450	-1.366872	2.437601	4.414243	-10.136177	0.000000	0.000000	23.977994	1.474284	6.995569	25.736894	-14.122177	79.769002	55.767917	19.730240	-2.407455	10.782738	11.865717	-11.435779	41.714285	56.538350	61.265487	-2.101436	20.146359
0.140351	1.429738	-1.912071	106.362552	0.065564	0.912366	0.533193	1.627484	4.842364	-6.853903	13.952778	0.243522	34.013383	-2.310019	0.000000	2.662613	-3.775859	-10.130814	12.566402	0.219325	42.558521	16.091361	0.000000	0.338553	0.362002	-1.880276	0.628727	0.481462	-1.997793	0.556209	0.880170	-1.997793	0.386932	0.880170	-1.645242	0.314380	0.738193	-1.527724	0.193449	0.560740	-1.410207	2.418250	4.095034	-10.457532	0.000000	0.000000	23.796492	1.734137	7.155999	25.829318	-13.904872	80.116341	55.740815	19.541990	-2.339136	10.403431	11.587599	-11.630077	41.211790	56.845766	61.201912	-2.027282	21.042842
